<?xml version="1.0" ?><svg height="48" viewBox="0 0 48 48" width="48" xmlns="http://www.w3.org/2000/svg"><defs><style>.cls-1{fill:#fa5c75;}.cls-2{fill:#49aaee;}.cls-3{fill:#f1f2f2;}.cls-4{fill:#e93d5b;}.cls-5{fill:#3398d6;}</style></defs><title/><g data-name="12-Flickr" id="_12-Flickr"><g data-name="&lt;Group&gt;" id="_Group_"><circle class="cls-1" cx="16" cy="24" r="5"/><circle class="cls-2" cx="32" cy="24" r="5"/><path class="cls-3" d="M24,1A23,23,0,1,1,1,24,23,23,0,0,1,24,1ZM37,24a5,5,0,1,0-5,5A5,5,0,0,0,37,24ZM21,24a5,5,0,1,0-5,5A5,5,0,0,0,21,24Z"/><path class="cls-4" d="M16,30a6,6,0,1,1,6-6A6.006,6.006,0,0,1,16,30Zm0-10a4,4,0,1,0,4,4A4,4,0,0,0,16,20Z"/><path class="cls-5" d="M32,30a6,6,0,1,1,6-6A6.006,6.006,0,0,1,32,30Zm0-10a4,4,0,1,0,4,4A4,4,0,0,0,32,20Z"/></g></g></svg>